PathFileType	4	(X/Y/Z)	 2.2Hzhigh3min.trc
DataRate	CameraRate	NumFrames	NumMarkers	Units	OrigDataRate	OrigDataStartFrame	OrigNumFrames
200	200	10	35	m	200	1	1000
Frame#	Time	C7			LSH			RSH			MAN			RASI			LASI			HIPR			HIPL			RPSI			LPSI			COX			RTHI1			RTHI2			RTHI3			RTHI4			RSHA1			RSHA2			RSHA3			RSHA4			RHEEL			RMET5			RMET1			RTOE			LTHI1			LTHI2			LTHI3			LTHI4			LSHA1			LSHA2			LSHA3			LSHA4			LHEEL			LMET5			LMET1			LTOE			
		X1	Y1	Z1	X2	Y2	Z2	X3	Y3	Z3	X4	Y4	Z4	X5	Y5	Z5	X6	Y6	Z6	X7	Y7	Z7	X8	Y8	Z8	X9	Y9	Z9	X10	Y10	Z10	X11	Y11	Z11	X12	Y12	Z12	X13	Y13	Z13	X14	Y14	Z14	X15	Y15	Z15	X16	Y16	Z16	X17	Y17	Z17	X18	Y18	Z18	X19	Y19	Z19	X20	Y20	Z20	X21	Y21	Z21	X22	Y22	Z22	X23	Y23	Z23	X24	Y24	Z24	X25	Y25	Z25	X26	Y26	Z26	X27	Y27	Z27	X28	Y28	Z28	X29	Y29	Z29	X30	Y30	Z30	X31	Y31	Z31	X32	Y32	Z32	X33	Y33	Z33	X34	Y34	Z34	X35	Y35	Z35	
1	0.0050	-0.288491	1.743535	-0.538696	-0.246335	1.732815	-0.766644	-0.229255	1.729700	-0.338503	-0.145416	1.698970	-0.553829	-0.099847	1.228864	-0.434995	-0.109264	1.223868	-0.659362	-0.156721	1.304072	-0.387400	-0.183280	1.298818	-0.708948	-0.284609	1.272273	-0.476764	-0.293833	1.269541	-0.591376	-0.295890	1.277023	-0.532616	-0.194657	1.022633	-0.348235	-0.186618	0.963931	-0.336619	-0.122496	0.966529	-0.346871	-0.122388	1.026871	-0.359604	-0.290289	0.442274	-0.336452	-0.295138	0.400304	-0.343353	-0.234979	0.398744	-0.333714	-0.233575	0.438602	-0.330874	-0.335847	0.190921	-0.386660	-0.193664	0.073145	-0.330528	-0.154957	0.083416	-0.412055	-0.127280	0.070949	-0.409616	-0.209664	0.978792	-0.747995	-0.192548	0.920183	-0.757560	-0.128614	0.933065	-0.758122	-0.137902	0.991444	-0.749670	-0.300608	0.423761	-0.750455	-0.307474	0.384242	-0.746342	-0.245899	0.377658	-0.758301	-0.247683	0.422507	-0.761558	-0.352069	0.196149	-0.704742	-0.217244	0.064060	-0.769765	-0.180220	0.070171	-0.699034	-0.153182	0.057298	-0.706535	
2	0.0100	-0.288804	1.744610	-0.538607	-0.246686	1.733768	-0.766716	-0.229355	1.730851	-0.338374	-0.145712	1.700152	-0.553779	-0.100048	1.230244	-0.435096	-0.109531	1.224819	-0.659486	-0.157064	1.305175	-0.387369	-0.183505	1.299692	-0.709093	-0.284977	1.273197	-0.477011	-0.294076	1.270462	-0.591624	-0.296277	1.277868	-0.532956	-0.194593	1.023652	-0.348498	-0.186394	0.965042	-0.336968	-0.122337	0.967853	-0.347471	-0.122395	1.028166	-0.360212	-0.290265	0.443720	-0.336307	-0.295235	0.401739	-0.343240	-0.235048	0.399910	-0.333927	-0.233541	0.439761	-0.331052	-0.336907	0.191923	-0.386678	-0.193964	0.074875	-0.331210	-0.155797	0.085453	-0.412900	-0.127975	0.073408	-0.410340	-0.209768	0.979534	-0.747826	-0.192688	0.921046	-0.757357	-0.128667	0.933909	-0.758176	-0.138045	0.992360	-0.749705	-0.300300	0.424906	-0.750087	-0.307315	0.385558	-0.745922	-0.245715	0.378530	-0.757619	-0.247332	0.423462	-0.761079	-0.352529	0.196472	-0.703703	-0.216344	0.066719	-0.770421	-0.179186	0.072444	-0.699742	-0.151832	0.059820	-0.707109	
3	0.0150	-0.289073	1.745441	-0.538527	-0.246985	1.734444	-0.766825	-0.229422	1.731684	-0.338223	-0.146009	1.701058	-0.553729	-0.100338	1.231347	-0.435131	-0.109816	1.225580	-0.659591	-0.157522	1.305976	-0.387320	-0.183755	1.300428	-0.709280	-0.285401	1.273741	-0.477314	-0.294370	1.271260	-0.591818	-0.296760	1.278381	-0.533401	-0.194409	1.024416	-0.348729	-0.185994	0.965842	-0.337277	-0.122017	0.968879	-0.348130	-0.122305	1.029211	-0.360878	-0.290252	0.444836	-0.336118	-0.295375	0.403125	-0.343127	-0.235156	0.400776	-0.334182	-0.233519	0.440640	-0.331242	-0.338085	0.192665	-0.386614	-0.194293	0.076353	-0.332004	-0.156782	0.087217	-0.413851	-0.128816	0.075562	-0.411218	-0.209678	0.980006	-0.747737	-0.192533	0.921612	-0.757267	-0.128474	0.934545	-0.758212	-0.137965	0.992953	-0.749731	-0.300056	0.425772	-0.749651	-0.307193	0.386517	-0.745431	-0.245607	0.379192	-0.756994	-0.247055	0.424127	-0.760602	-0.353074	0.196601	-0.702595	-0.215735	0.069042	-0.770935	-0.178318	0.074500	-0.700401	-0.150728	0.062107	-0.707706	
4	0.0200	-0.289338	1.746206	-0.538452	-0.247270	1.735037	-0.766938	-0.229483	1.732432	-0.338077	-0.146301	1.701887	-0.553683	-0.100662	1.232420	-0.435183	-0.110116	1.226267	-0.659687	-0.158004	1.306704	-0.387282	-0.184102	1.301230	-0.709302	-0.285841	1.274184	-0.477629	-0.294674	1.271550	-0.592103	-0.297240	1.278785	-0.533822	-0.194186	1.025108	-0.348950	-0.185549	0.966563	-0.337578	-0.121659	0.969835	-0.348802	-0.122177	1.030186	-0.361545	-0.290236	0.445874	-0.335916	-0.295567	0.404336	-0.343117	-0.235269	0.401565	-0.334451	-0.233494	0.441442	-0.331440	-0.339296	0.193333	-0.386523	-0.194625	0.077783	-0.332813	-0.157793	0.088920	-0.414824	-0.129674	0.077650	-0.412144	-0.209532	0.980402	-0.747660	-0.192304	0.922074	-0.757180	-0.128215	0.935123	-0.758229	-0.137833	0.993493	-0.749740	-0.299833	0.426563	-0.749202	-0.307100	0.387395	-0.744928	-0.245520	0.379783	-0.756364	-0.246803	0.424725	-0.760120	-0.353643	0.196675	-0.701474	-0.215187	0.071289	-0.771408	-0.177498	0.076479	-0.701024	-0.149691	0.064317	-0.708306	
5	0.0250	-0.289575	1.746763	-0.538383	-0.247512	1.735393	-0.767074	-0.229526	1.732907	-0.337927	-0.146588	1.702482	-0.553641	-0.101076	1.233218	-0.435173	-0.110438	1.226773	-0.659764	-0.158564	1.307194	-0.387250	-0.184470	1.301494	-0.709455	-0.286329	1.274317	-0.477985	-0.294929	1.271580	-0.592272	-0.297761	1.278890	-0.534255	-0.193854	1.025581	-0.349146	-0.184969	0.967034	-0.337856	-0.121175	0.970554	-0.349516	-0.121951	1.030945	-0.362227	-0.290222	0.446653	-0.335686	-0.295793	0.404816	-0.342689	-0.235400	0.402109	-0.334738	-0.233470	0.442002	-0.331650	-0.340607	0.193786	-0.386366	-0.194979	0.079022	-0.333685	-0.158898	0.090418	-0.415868	-0.130627	0.079517	-0.413194	-0.209224	0.980576	-0.747633	-0.191853	0.922318	-0.757142	-0.127759	0.935524	-0.758203	-0.137534	0.993816	-0.749720	-0.299668	0.427129	-0.748705	-0.307052	0.388037	-0.744325	-0.245495	0.380182	-0.755765	-0.246618	0.425096	-0.759627	-0.354275	0.196583	-0.700302	-0.214840	0.073296	-0.771780	-0.176823	0.078243	-0.701570	-0.148847	0.066312	-0.708900	
6	0.0300	-0.289806	1.747134	-0.538324	-0.247722	1.735537	-0.767224	-0.229558	1.733139	-0.337784	-0.146864	1.702843	-0.553607	-0.101550	1.233773	-0.435148	-0.110778	1.227112	-0.659822	-0.159186	1.307471	-0.387247	-0.184935	1.301665	-0.709590	-0.286862	1.274175	-0.478362	-0.295350	1.271305	-0.592643	-0.298288	1.278704	-0.534632	-0.193422	1.025868	-0.349310	-0.184281	0.967308	-0.338147	-0.120588	0.971074	-0.350264	-0.121629	1.031503	-0.362891	-0.290195	0.447239	-0.335427	-0.296072	0.405741	-0.342523	-0.235535	0.402442	-0.335047	-0.233433	0.442341	-0.331883	-0.342001	0.194045	-0.386148	-0.195350	0.080123	-0.334583	-0.160061	0.091746	-0.416951	-0.131636	0.081190	-0.414352	-0.208770	0.980548	-0.747636	-0.191176	0.922329	-0.757119	-0.127130	0.935760	-0.758105	-0.137103	0.993993	-0.749652	-0.299555	0.427494	-0.748177	-0.307063	0.388443	-0.743706	-0.245526	0.380384	-0.755162	-0.246497	0.425269	-0.759104	-0.354965	0.196354	-0.699108	-0.214655	0.075065	-0.772051	-0.176275	0.079810	-0.702035	-0.148161	0.068106	-0.709472	
7	0.0350	-0.290020	1.747282	-0.538274	-0.247892	1.735428	-0.767385	-0.229584	1.733094	-0.337649	-0.147115	1.702950	-0.553583	-0.102083	1.234085	-0.435120	-0.111147	1.227219	-0.659858	-0.159869	1.307498	-0.387264	-0.185463	1.301534	-0.709699	-0.287440	1.273720	-0.478766	-0.295757	1.270636	-0.592990	-0.298836	1.278196	-0.534979	-0.192884	1.025918	-0.349448	-0.183475	0.967342	-0.338441	-0.119892	0.971354	-0.351035	-0.121203	1.031831	-0.363535	-0.290147	0.447578	-0.335160	-0.296324	0.406023	-0.342398	-0.235679	0.402527	-0.335377	-0.233378	0.442429	-0.332134	-0.343488	0.194069	-0.385864	-0.195765	0.081032	-0.335485	-0.161292	0.092856	-0.418055	-0.132714	0.082628	-0.415584	-0.208156	0.980290	-0.747667	-0.190289	0.922106	-0.757091	-0.126315	0.935802	-0.757941	-0.136520	0.993973	-0.749530	-0.299500	0.427642	-0.747629	-0.307150	0.388621	-0.743087	-0.245627	0.380365	-0.754564	-0.246444	0.425223	-0.758577	-0.355723	0.195955	-0.697892	-0.214631	0.076605	-0.772222	-0.175873	0.081134	-0.702391	-0.147647	0.069659	-0.709988	
8	0.0400	-0.290221	1.747204	-0.538232	-0.248040	1.735078	-0.767557	-0.229608	1.732771	-0.337524	-0.147341	1.702796	-0.553569	-0.102678	1.234135	-0.435086	-0.111545	1.227109	-0.659882	-0.160602	1.307267	-0.387298	-0.185994	1.301177	-0.709807	-0.288062	1.272971	-0.479180	-0.296221	1.269937	-0.593268	-0.299399	1.277375	-0.535293	-0.192253	1.025728	-0.349557	-0.182575	0.967137	-0.338738	-0.119105	0.971411	-0.351814	-0.120686	1.031919	-0.364141	-0.290064	0.447683	-0.334888	-0.296568	0.406163	-0.342267	-0.235806	0.402357	-0.335706	-0.233299	0.442253	-0.332396	-0.345056	0.193864	-0.385546	-0.196234	0.081764	-0.336361	-0.162578	0.093757	-0.419140	-0.133841	0.083835	-0.416839	-0.207398	0.979807	-0.747712	-0.189233	0.921670	-0.757059	-0.125340	0.935647	-0.757704	-0.135805	0.993766	-0.749348	-0.299494	0.427582	-0.747076	-0.307284	0.388616	-0.742394	-0.245791	0.380120	-0.753966	-0.246446	0.424963	-0.758047	-0.356550	0.195396	-0.696670	-0.214743	0.077876	-0.772284	-0.175610	0.082211	-0.702643	-0.147294	0.070946	-0.710422	
9	0.0450	-0.290410	1.746899	-0.538198	-0.248162	1.734493	-0.767734	-0.229634	1.732169	-0.337405	-0.147544	1.702378	-0.553567	-0.103285	1.233879	-0.435030	-0.111959	1.226779	-0.659895	-0.161372	1.306766	-0.387345	-0.186598	1.300521	-0.709938	-0.288722	1.271932	-0.479591	-0.296620	1.268787	-0.593645	-0.299985	1.276263	-0.535587	-0.191561	1.025294	-0.349632	-0.181615	0.966700	-0.339050	-0.118253	0.971229	-0.352572	-0.120108	1.031764	-0.364691	-0.289941	0.447558	-0.334632	-0.296726	0.406011	-0.341947	-0.235917	0.401942	-0.336033	-0.233186	0.441821	-0.332675	-0.346679	0.193438	-0.385195	-0.196767	0.082294	-0.337175	-0.163888	0.094432	-0.420173	-0.135011	0.084781	-0.418059	-0.206519	0.979106	-0.747763	-0.188019	0.921046	-0.757006	-0.124231	0.935289	-0.757381	-0.134981	0.993369	-0.749105	-0.299524	0.427319	-0.746535	-0.307483	0.388402	-0.741753	-0.246007	0.379652	-0.753376	-0.246490	0.424482	-0.757519	-0.357438	0.194698	-0.695476	-0.214999	0.078900	-0.772250	-0.175490	0.083009	-0.702781	-0.147084	0.071944	-0.710737	
10	0.0500	-0.290585	1.746365	-0.538172	-0.248269	1.733680	-0.767915	-0.229662	1.731311	-0.337289	-0.147724	1.701705	-0.553574	-0.103899	1.233403	-0.434992	-0.112387	1.226218	-0.659902	-0.162172	1.305982	-0.387396	-0.187127	1.299742	-0.710064	-0.289405	1.270614	-0.479997	-0.297085	1.267476	-0.593955	-0.300597	1.274875	-0.535890	-0.190841	1.024602	-0.349677	-0.180621	0.966024	-0.339355	-0.117367	0.970807	-0.353284	-0.119506	1.031365	-0.365188	-0.289765	0.447212	-0.334394	-0.296820	0.405851	-0.341304	-0.236009	0.401278	-0.336367	-0.233031	0.441143	-0.332966	-0.348326	0.192787	-0.384821	-0.197374	0.082614	-0.337900	-0.165213	0.094860	-0.421116	-0.136198	0.085438	-0.419190	-0.205547	0.978188	-0.747814	-0.186700	0.920189	-0.756914	-0.123023	0.934729	-0.756995	-0.134067	0.992762	-0.748810	-0.299572	0.426867	-0.746027	-0.307721	0.387978	-0.741174	-0.246264	0.378962	-0.752787	-0.246557	0.423785	-0.757016	-0.358387	0.193885	-0.694326	-0.215398	0.079611	-0.772104	-0.175511	0.083522	-0.702810	-0.147023	0.072621	-0.710926	
